<?xml version="1.0" encoding="utf-8"?>
<!-- Generator: Adobe Illustrator 25.2.3, SVG Export Plug-In . SVG Version: 6.00 Build 0)  -->
<svg version="1.1" id="Layer_1" xmlns="http://www.w3.org/2000/svg" xmlns:xlink="http://www.w3.org/1999/xlink" x="0px" y="0px"
	 viewBox="0 0 542.5 76.8" style="enable-background:new 0 0 542.5 76.8;" xml:space="preserve">
<g>
	<path d="M0,76.8V65.8h29.5c5.6,0,9.7-0.9,12.4-2.7c2.7-1.8,4.1-4.6,4.1-7.5c0-2.1-0.8-3.9-2.3-5.3c-1.5-1.4-3.5-2.5-5.8-3.3
		c-2.3-0.8-5.5-1.7-9.6-2.7C22.6,43,18,41.7,14.5,40.3C10.9,39,7.9,36.9,5.4,34c-2.5-2.9-3.8-6.8-3.8-11.7c0-4.1,1.1-7.9,3.4-11.3
		C7.2,7.7,10.6,5,15.1,3s10-3,16.6-3h24.9v11.1h-25c-5.5,0-9.6,1.4-12.2,3.2c-2.7,1.9-4,4.3-4,7.4c0,2.1,0.8,3.9,2.3,5.2
		c1.5,1.4,3.5,2.4,5.8,3.2c2.3,0.8,5.5,1.7,9.6,2.7c5.5,1.3,10.1,2.6,13.7,4c3.6,1.4,6.6,3.5,9.1,6.4c2.5,2.8,3.8,6.7,3.8,11.5
		c0,4.1-1.1,7.9-3.4,11.2c-2.2,3.3-5.6,6-10.2,8s-10.1,3-16.7,3H0z"/>
	<path d="M208.9,48.3v28.5h-11.1V48.6L167.1,0H182l21.9,36.4L225.9,0h13.7L208.9,48.3z"/>
	<path d="M328.9,68.1c-5.8-5.8-8.6-14.1-8.6-24.9V0h13.9v43.8c0,14.7,6.3,22,19,22c12.6,0,18.9-7.3,18.9-22V0h13.7v43.2
		c0,10.8-2.9,19.1-8.6,24.9c-5.7,5.8-13.8,8.7-24.1,8.7S334.7,73.9,328.9,68.1z"/>
	<path d="M462.6,0v76.8h-11.4l-43.9-54.7v54.7h-11.1V0h11.4l43.9,54.6V0H462.6z"/>
	<path d="M529.4,37.6h13.1v29.8c-3.8,3.1-8.3,5.4-13.4,7c-5.1,1.6-10.4,2.5-15.8,2.5c-7.6,0-14.5-1.7-20.6-5
		c-6.1-3.3-10.9-7.9-14.4-13.7S473,45.8,473,38.4c0-7.3,1.7-13.9,5.2-19.7c3.5-5.8,8.3-10.4,14.5-13.7c6.2-3.3,13.1-5,20.8-5h29
		v11.1h-28.4c-5.3,0-9.9,1.1-14,3.3c-4.1,2.2-7.3,5.3-9.6,9.3c-2.3,4-3.5,9.6-3.5,14.7c0,5,1.2,10.5,3.5,14.5s5.5,7.1,9.6,9.4
		c4.1,2.3,8.7,3.4,13.9,3.4c5.8,0,11-1.3,15.4-3.8V37.6z"/>
	<path d="M105.4,0H67.1v38.4c0,21.2,17.2,38.4,38.4,38.4c21.2,0,38.4-17.2,38.4-38.4C143.8,17.2,126.6,0,105.4,0z M105.4,65.7
		c-15.1,0-27.3-12.2-27.3-27.3V11.1h27.3c15.1,0,27.3,12.2,27.3,27.3C132.7,53.5,120.5,65.7,105.4,65.7z"/>
	<path d="M233,38.4c0,21.2,17.2,38.4,38.4,38.4c21.2,0,38.4-17.2,38.4-38.4V0l-38.4,0C250.2,0,233,17.2,233,38.4z M244.1,38.4
		c0-15.1,12.2-27.3,27.3-27.3h27.3v27.3c0,15.1-12.2,27.3-27.3,27.3C256.3,65.7,244.1,53.5,244.1,38.4z"/>
</g>
</svg>
